<svg xmlns="http://www.w3.org/2000/svg" viewBox="0 0 820 316" font-family="-apple-system, Segoe UI, system-ui, sans-serif" font-size="13" role="img" aria-label="WAL written while inserting 5M rows (lower is better)">
<text x="0" y="18" font-size="15" font-weight="600" fill="#6e7781">WAL written while inserting 5M rows (lower is better)</text>
<text x="242" y="60" text-anchor="end" fill="#6e7781">bigint identity (baseline)</text>
<rect x="250" y="47" width="226.7" height="18" rx="3" fill="#4493f8"/>
<text x="482.7" y="60" fill="#6e7781">675.6 MB</text>
<text x="242" y="86" text-anchor="end" fill="#6e7781">snowflake bigint</text>
<rect x="250" y="73" width="221.6" height="18" rx="3" fill="#4493f8"/>
<text x="477.6" y="86" fill="#6e7781">660.5 MB</text>
<text x="242" y="112" text-anchor="end" fill="#6e7781">uuid v4 (gen_random_uuid)</text>
<rect x="250" y="99" width="272.9" height="18" rx="3" fill="#d29922"/>
<text x="528.9" y="112" fill="#6e7781">813.3 MB</text>
<text x="242" y="138" text-anchor="end" fill="#6e7781">uuid v7 (uuidv7)</text>
<rect x="250" y="125" width="249.2" height="18" rx="3" fill="#4493f8"/>
<text x="505.2" y="138" fill="#6e7781">742.5 MB</text>
<text x="242" y="164" text-anchor="end" fill="#6e7781">ulid as uuid</text>
<rect x="250" y="151" width="267.2" height="18" rx="3" fill="#d29922"/>
<text x="523.2" y="164" fill="#6e7781">796.3 MB</text>
<text x="242" y="190" text-anchor="end" fill="#6e7781">ulid monotonic as uuid</text>
<rect x="250" y="177" width="249.2" height="18" rx="3" fill="#4493f8"/>
<text x="505.2" y="190" fill="#6e7781">742.5 MB</text>
<text x="242" y="216" text-anchor="end" fill="#6e7781">ulid text COLLATE &quot;C&quot;</text>
<rect x="250" y="203" width="323.2" height="18" rx="3" fill="#d29922"/>
<text x="579.2" y="216" fill="#6e7781">963 MB</text>
<text x="242" y="242" text-anchor="end" fill="#6e7781">ulid monotonic text COLLATE &quot;C&quot;</text>
<rect x="250" y="229" width="291.5" height="18" rx="3" fill="#4493f8"/>
<text x="547.5" y="242" fill="#6e7781">868.7 MB</text>
<text x="242" y="268" text-anchor="end" fill="#6e7781">nanoid(21) text COLLATE &quot;C&quot;</text>
<rect x="250" y="255" width="309.5" height="18" rx="3" fill="#d29922"/>
<text x="565.5" y="268" fill="#6e7781">922.3 MB</text>
<text x="242" y="294" text-anchor="end" fill="#6e7781">uuid v4 as text</text>
<rect x="250" y="281" width="380.0" height="18" rx="3" fill="#d29922"/>
<text x="636.0" y="294" fill="#6e7781">1132.4 MB</text>
</svg>
